<svg width="90" height="70" viewBox="0 0 90 70" fill="none" xmlns="http://www.w3.org/2000/svg">
<circle cx="35" cy="35" r="35" fill="#D5F5E9"/>
<path fill-rule="evenodd" clip-rule="evenodd" d="M89.5636 17.9689V53.8481C89.5636 58.8009 85.6166 62.8171 80.5932 62.8171H38.9704C33.947 62.8171 30 58.8009 30 53.8481V35.9103V25.443V17.9689C30 13.0162 33.947 9 38.9704 9H47.9409H59.7818H80.5932C85.6166 9 89.5636 13.0162 89.5636 17.9689Z" fill="#47BEBA"/>
<rect x="39.3105" y="32.8846" width="41.3793" height="4.15385" rx="2" fill="#F8FEED"/>
<rect x="48.6211" y="42.2308" width="22.7586" height="4.15385" rx="2" fill="#1C4C4A"/>
<path fill-rule="evenodd" clip-rule="evenodd" d="M38.9707 21.7078C38.9707 19.6438 40.7648 17.9689 42.5589 17.9689C44.7118 17.9689 46.5059 19.6438 46.5059 21.7078C46.5059 23.7717 44.7118 25.443 42.5589 25.443C40.7648 25.443 38.9707 23.7717 38.9707 21.7078Z" fill="#F8FEED"/>
<path fill-rule="evenodd" clip-rule="evenodd" d="M54.7585 17.9689C52.6056 17.9689 50.8115 19.6438 50.8115 21.7078C50.8115 23.7717 52.6056 25.443 54.7585 25.443C56.5526 25.443 58.3467 23.7717 58.3467 21.7078C58.3467 19.6438 56.5526 17.9689 54.7585 17.9689Z" fill="#1C4C4A"/>
</svg>
