<svg width="75" height="70" viewBox="0 0 75 70" fill="none" xmlns="http://www.w3.org/2000/svg">
<circle cx="35" cy="35" r="35" fill="#D5F5E9"/>
<path fill-rule="evenodd" clip-rule="evenodd" d="M58.8589 33.612V47.2267V51.7641V54.0327C58.8589 55.2846 57.753 56.3014 56.6471 56.3014H51.9471C50.8412 56.3014 49.7354 57.3155 49.7354 58.5701C49.7354 59.8219 50.8412 60.8387 51.9471 60.8387H56.6471C58.3059 60.8387 59.9648 60.1827 61.0706 59.1058C62.453 60.1827 64.1118 60.8387 65.7706 60.8387H70.4706C71.5765 60.8387 72.6824 59.8219 72.6824 58.5701C72.6824 57.3155 71.5765 56.3014 70.4706 56.3014H65.7706C64.3883 56.3014 63.5589 55.2846 63.5589 54.0327V51.7641H67.9824C71.853 51.7641 74.8942 48.7164 74.8942 44.9581V35.8834C74.8942 32.1223 71.853 29.0747 67.9824 29.0747H63.5589V26.806C63.5589 25.5541 64.3883 24.5373 65.7706 24.5373H70.4706C71.5765 24.5373 72.6824 23.5233 72.6824 22.2687C72.6824 21.0168 71.5765 20 70.4706 20H65.7706C64.1118 20 62.453 20.656 61.0706 21.7329C59.9648 20.656 58.3059 20 56.6471 20H51.9471C50.8412 20 49.7354 21.0168 49.7354 22.2687C49.7354 23.5233 50.8412 24.5373 51.9471 24.5373H56.6471C57.753 24.5373 58.8589 25.5541 58.8589 26.806V29.0747V33.612ZM63.5589 47.2267V33.612H67.9824C69.3648 33.612 70.4706 34.6288 70.4706 35.8834V44.9581C70.4706 46.2099 69.3648 47.2267 67.9824 47.2267H63.5589Z" fill="#2C726F"/>
<path fill-rule="evenodd" clip-rule="evenodd" d="M54.1588 47.2267V51.7641H35.9118C32.0412 51.7641 29 48.7164 29 44.9581V35.8834C29 32.1223 32.0412 29.0747 35.9118 29.0747H54.1588V33.612H35.9118C34.5294 33.612 33.7 34.6288 33.7 35.8834V44.9581C33.7 46.2099 34.5294 47.2267 35.9118 47.2267H54.1588Z" fill="#47BEBA"/>
</svg>
