<svg width="78" height="70" viewBox="0 0 78 70" fill="none" xmlns="http://www.w3.org/2000/svg">
<circle cx="35" cy="35" r="35" fill="#D5F5E9"/>
<path fill-rule="evenodd" clip-rule="evenodd" d="M74.7759 19C76.541 19 77.6 20.3132 77.6 21.93C77.6 23.5503 76.541 24.86 74.7759 24.86H22.1771C20.412 24.86 19 23.5503 19 21.93C19 20.3132 20.412 19 22.1771 19H74.7759Z" fill="#2C726F"/>
<path fill-rule="evenodd" clip-rule="evenodd" d="M69.4458 30.72C71.0422 30.72 72 32.0332 72 33.6535C72 35.2703 71.0422 36.5835 69.4458 36.5835H21.8735C20.2771 36.5835 19 35.2703 19 33.6535C19 32.0332 20.2771 30.72 21.8735 30.72H69.4458Z" fill="#47BEBA"/>
<path fill-rule="evenodd" clip-rule="evenodd" d="M64 45.3735C64 43.7532 63.1867 42.4435 61.8313 42.4435H21.4398C20.0843 42.4435 19 43.7532 19 45.3735C19 46.9903 20.0843 48.3035 21.4398 48.3035H61.8313C63.1867 48.3035 64 46.9903 64 45.3735Z" fill="#7ED2CF"/>
<path fill-rule="evenodd" clip-rule="evenodd" d="M55.0072 54.1635C56.7723 54.1635 57.8313 55.4732 57.8313 57.0935C57.8313 58.7103 56.7723 60.0235 55.0072 60.0235H22.1771C20.412 60.0235 19 58.7103 19 57.0935C19 55.4732 20.412 54.1635 22.1771 54.1635H55.0072Z" fill="#92DAD2"/>
</svg>
