<svg width="80" height="70" viewBox="0 0 80 70" fill="none" xmlns="http://www.w3.org/2000/svg">
<circle cx="35" cy="35" r="35" fill="#D5F5E9"/>
<path fill-rule="evenodd" clip-rule="evenodd" d="M65.8831 12H42.7169C40.5831 12 38.7542 12.8017 37.2301 14.2252L31.1337 20.3307C29.9145 21.7542 29 23.6868 29 25.6986V29.71V55.0131C29 59.2043 32.353 62.603 36.6205 62.603H71.9795C76.247 62.603 79.6 59.2043 79.6 55.0131V29.71V25.6986C79.6 23.6868 78.6855 21.7542 77.4663 20.3307L71.3699 14.2252C69.8458 12.8017 68.0169 12 65.8831 12ZM71.9795 22.12L67.712 17.8007C67.1024 17.3282 66.4928 17.06 65.8831 17.06H42.7169C42.1072 17.06 41.4976 17.3282 40.888 17.8007L36.6205 22.12H71.9795Z" fill="#47BEBA"/>
<path fill-rule="evenodd" clip-rule="evenodd" d="M61.92 32.243C60.3959 32.243 59.4814 33.3739 59.4814 34.773V39.833C59.4814 41.2291 60.3959 42.363 61.92 42.363H66.7971C68.3212 42.363 69.5405 41.2291 69.5405 39.833V34.773C69.5405 33.3739 68.3212 32.243 66.7971 32.243H61.92Z" fill="#F8FEED"/>
<path fill-rule="evenodd" clip-rule="evenodd" d="M59.4814 47.423C59.4814 46.0239 60.3959 44.893 61.92 44.893H66.7971C68.3212 44.893 69.5405 46.0239 69.5405 47.423C69.5405 48.8191 68.3212 49.953 66.7971 49.953H61.92C60.3959 49.953 59.4814 48.8191 59.4814 47.423Z" fill="#1C4C4A"/>
<path fill-rule="evenodd" clip-rule="evenodd" d="M53.2169 29C54.3313 29 55 29.8323 55 30.857C55 31.8839 54.3313 32.714 53.2169 32.714H20.006C18.8916 32.714 18 31.8839 18 30.857C18 29.8323 18.8916 29 20.006 29H53.2169ZM53.2169 36.4279C54.3313 36.4279 55 37.2602 55 38.2872C55 39.3118 54.3313 40.1441 53.2169 40.1441H20.006C18.8916 40.1441 18 39.3118 18 38.2872C18 37.2602 18.8916 36.4279 20.006 36.4279H53.2169ZM55 45.7151C55 44.6882 54.3313 43.8581 53.2169 43.8581H20.006C18.8916 43.8581 18 44.6882 18 45.7151C18 46.7398 18.8916 47.5721 20.006 47.5721H53.2169C54.3313 47.5721 55 46.7398 55 45.7151ZM53.2169 51.286C54.3313 51.286 55 52.1161 55 53.143C55 54.1677 54.3313 55 53.2169 55H32.488C31.3735 55 30.4819 54.1677 30.4819 53.143C30.4819 52.1161 31.3735 51.286 32.488 51.286H53.2169Z" fill="#7ED2CF"/>
</svg>
