<svg width="94" height="70" viewBox="0 0 94 70" fill="none" xmlns="http://www.w3.org/2000/svg">
<circle cx="35" cy="35" r="35" fill="#D5F5E9"/>
<path fill-rule="evenodd" clip-rule="evenodd" d="M74.7759 21C76.541 21 77.6 22.3132 77.6 23.93C77.6 25.5503 76.541 26.86 74.7759 26.86H22.1771C20.412 26.86 19 25.5503 19 23.93C19 22.3132 20.412 21 22.1771 21H74.7759Z" fill="#47BEBA"/>
<path fill-rule="evenodd" clip-rule="evenodd" d="M69.4458 32.72C71.0422 32.72 72 34.0332 72 35.6535C72 37.2703 71.0422 38.5835 69.4458 38.5835H21.8735C20.2771 38.5835 19 37.2703 19 35.6535C19 34.0332 20.2771 32.72 21.8735 32.72H69.4458Z" fill="#7ED2CF"/>
<path fill-rule="evenodd" clip-rule="evenodd" d="M64 47.3735C64 45.7532 63.1867 44.4435 61.8313 44.4435H21.4398C20.0843 44.4435 19 45.7532 19 47.3735C19 48.9903 20.0843 50.3035 21.4398 50.3035H61.8313C63.1867 50.3035 64 48.9903 64 47.3735Z" fill="#F8FEED"/>
<path fill-rule="evenodd" clip-rule="evenodd" d="M86.5853 27.5863C88.0754 28.4073 89.0032 29.9704 89.0032 31.6686V40.2323C91.7303 41.1938 93.6702 43.7888 93.6702 46.8364C93.6702 49.884 91.7303 52.4762 89.0032 53.4377V62.0042C89.0032 63.6995 88.0754 65.2627 86.5853 66.0864C85.1233 66.9074 83.2959 66.8624 81.8621 65.9627L77.2794 63.0978C73.6807 60.8599 69.7728 59.2714 65.6681 58.3886V66.6712C65.6681 67.9588 64.6278 69.0047 63.3346 69.0047H56.334C55.0408 69.0047 54.0005 67.9588 54.0005 66.6712V56.9042C49.9239 55.386 47 51.45 47 46.8364C47 40.907 51.8076 36.1022 57.7398 36.1022H57.9928C64.7965 36.1022 71.4878 34.1848 77.2794 30.5749L81.8621 27.7072C83.2959 26.8104 85.1233 26.7626 86.5853 27.5863Z" fill="#47BEBA"/>
<path fill-rule="evenodd" clip-rule="evenodd" d="M84.3361 31.6686L79.7534 34.5334L79.6691 34.5812C73.1465 38.6241 65.6399 40.7693 57.9928 40.7693H57.7397C54.3941 40.7693 51.667 43.4851 51.667 46.8364C51.667 50.1876 54.3941 52.9035 57.7397 52.9035H57.9928C65.6399 52.9035 73.1465 55.0458 79.6691 59.0915L79.7534 59.1393L84.3361 62.0042V56.5022V37.1706V31.6686Z" fill="#47BEBA"/>
<path fill-rule="evenodd" clip-rule="evenodd" d="M58.6677 57.5761V64.3377H61.0012V57.6942C60.214 57.6296 59.4549 57.5902 58.6677 57.5761Z" fill="#D5F5E9"/>
<path fill-rule="evenodd" clip-rule="evenodd" d="M88 51C89.7478 50.4178 91 48.8467 91 47C91 45.1533 89.7478 43.5822 88 43V51Z" fill="#D5F5E9"/>
</svg>
