<svg width="39" height="20" viewBox="0 0 39 20" fill="none" xmlns="http://www.w3.org/2000/svg">
<path fill-rule="evenodd" clip-rule="evenodd" d="M36.8688 0C38.0356 0 38.7356 0.868051 38.7356 1.93678C38.7356 3.00784 38.0356 3.87356 36.8688 3.87356H2.10012C0.933388 3.87356 0 3.00784 0 1.93678C0 0.868051 0.933388 0 2.10012 0H36.8688Z" fill="#2C726F"/>
<path fill-rule="evenodd" clip-rule="evenodd" d="M33.3455 7.74707C34.4008 7.74707 35.0339 8.61512 35.0339 9.68618C35.0339 10.7549 34.4008 11.623 33.3455 11.623H1.89943C0.84419 11.623 0 10.7549 0 9.68618C0 8.61512 0.84419 7.74707 1.89943 7.74707H33.3455Z" fill="#47BEBA"/>
<path fill-rule="evenodd" clip-rule="evenodd" d="M29.7458 17.4329C29.7458 16.3618 29.2082 15.4961 28.3122 15.4961H1.61272C0.716765 15.4961 0 16.3618 0 17.4329C0 18.5016 0.716765 19.3697 1.61272 19.3697H28.3122C29.2082 19.3697 29.7458 18.5016 29.7458 17.4329Z" fill="#7ED2CF"/>
</svg>
