<svg width="21" height="19" viewBox="0 0 21 19" fill="none" xmlns="http://www.w3.org/2000/svg">
<path fill-rule="evenodd" clip-rule="evenodd" d="M21 1.05556C21 0.471821 20.5319 0 19.95 0C19.3681 0 18.9 0.471821 18.9 1.05556V2.04498L18.3813 2.17343L2.1 6.26975C2.06205 5.71653 1.60663 5.27778 1.05 5.27778C0.468072 5.27778 0 5.7496 0 6.33333V12.6667C0 13.2491 0.468072 13.7222 1.05 13.7222C1.60663 13.7222 2.06205 13.2835 2.1 12.7303L6.05964 13.726V14.9584C6.05964 17.0008 7.70422 18.6566 9.72831 18.6541C11.5627 18.6515 13.0681 17.3137 13.359 15.5612L18.3813 16.8266L18.9 16.9537V17.9444C18.9 18.5269 19.3681 19 19.95 19C20.5319 19 21 18.5269 21 17.9444V1.05556ZM11.297 15.0448L8.15964 14.2538V14.9584C8.15964 15.8346 8.85542 16.543 9.72831 16.543C10.5759 16.5417 11.259 15.8791 11.297 15.0448ZM16.8 4.75L18.9 4.22222V6.39819V12.6018V14.7778L16.8 14.25L2.1 10.5556V8.44444L16.8 4.75Z" fill="#47BEBA"/>
</svg>
