<svg width="37" height="19" viewBox="0 0 37 19" fill="none" xmlns="http://www.w3.org/2000/svg">
<path fill-rule="evenodd" clip-rule="evenodd" d="M22.3067 4.07167C22.3067 5.4971 21.5778 6.75154 20.4706 7.47897C22.2366 8.31713 23.47 10.1224 23.47 12.2164V14.1268V17.4514C23.47 18.0933 22.9514 18.6147 22.3067 18.6147C21.6619 18.6147 21.1433 18.0933 21.1433 17.4514V14.1268V12.2164C21.1433 10.6102 19.8398 9.30807 18.228 9.30807C16.6302 9.30807 15.3267 10.6102 15.3267 12.2164V14.1268V17.4514C15.3267 18.0933 14.8081 18.6147 14.1633 18.6147C13.5186 18.6147 13 18.0933 13 17.4514V14.1268V12.2164C13 10.1224 14.2334 8.31713 15.9994 7.47897C14.8922 6.75154 14.1633 5.4971 14.1633 4.07167C14.1633 1.82349 15.9854 0 18.228 0C20.4846 0 22.3067 1.82349 22.3067 4.07167ZM18.228 2.32667C19.1951 2.32667 19.98 3.10876 19.98 4.07167C19.98 5.03597 19.1951 5.81667 18.228 5.81667C17.2749 5.81667 16.49 5.03597 16.49 4.07167C16.49 3.10876 17.2749 2.32667 18.228 2.32667Z" fill="#9DF0ED"/>
<path opacity="0.5" fill-rule="evenodd" clip-rule="evenodd" d="M9.30667 4.07167C9.30667 5.4971 8.57783 6.75154 7.47056 7.47897C9.23659 8.31713 10.47 10.1224 10.47 12.2164V14.1268V17.4514C10.47 18.0933 9.95141 18.6147 9.30667 18.6147C8.66193 18.6147 8.14333 18.0933 8.14333 17.4514V14.1268V12.2164C8.14333 10.6102 6.83984 9.30807 5.22799 9.30807C3.63016 9.30807 2.32667 10.6102 2.32667 12.2164V14.1268V17.4514C2.32667 18.0933 1.80807 18.6147 1.16333 18.6147C0.518594 18.6147 0 18.0933 0 17.4514V14.1268V12.2164C0 10.1224 1.23341 8.31713 2.99944 7.47897C1.89217 6.75154 1.16333 5.4971 1.16333 4.07167C1.16333 1.82349 2.98542 0 5.22799 0C7.48458 0 9.30667 1.82349 9.30667 4.07167ZM5.22799 2.32667C6.1951 2.32667 6.98 3.10876 6.98 4.07167C6.98 5.03597 6.1951 5.81667 5.22799 5.81667C4.2749 5.81667 3.49 5.03597 3.49 4.07167C3.49 3.10876 4.2749 2.32667 5.22799 2.32667Z" fill="#9DF0ED"/>
<path fill-rule="evenodd" clip-rule="evenodd" d="M35.3067 4.07167C35.3067 5.4971 34.5778 6.75154 33.4706 7.47897C35.2366 8.31713 36.47 10.1224 36.47 12.2164V14.1268V17.4514C36.47 18.0933 35.9514 18.6147 35.3067 18.6147C34.6619 18.6147 34.1433 18.0933 34.1433 17.4514V14.1268V12.2164C34.1433 10.6102 32.8398 9.30807 31.228 9.30807C29.6302 9.30807 28.3267 10.6102 28.3267 12.2164V14.1268V17.4514C28.3267 18.0933 27.8081 18.6147 27.1633 18.6147C26.5186 18.6147 26 18.0933 26 17.4514V14.1268V12.2164C26 10.1224 27.2334 8.31713 28.9994 7.47897C27.8922 6.75154 27.1633 5.4971 27.1633 4.07167C27.1633 1.82349 28.9854 0 31.228 0C33.4846 0 35.3067 1.82349 35.3067 4.07167ZM31.228 2.32667C32.1951 2.32667 32.98 3.10876 32.98 4.07167C32.98 5.03597 32.1951 5.81667 31.228 5.81667C30.2749 5.81667 29.49 5.03597 29.49 4.07167C29.49 3.10876 30.2749 2.32667 31.228 2.32667Z" fill="#2C726F"/>
</svg>
