<svg width="80" height="80" viewBox="0 0 80 80" fill="none" xmlns="http://www.w3.org/2000/svg">
<circle opacity="0.6" cx="40" cy="40" r="40" fill="#D2F5E9"/>
<path d="M37.63 41.04C38.44 40.77 39.34 40.59 40.285 40.59C41.68 40.59 42.805 40.995 43.705 41.76C44.605 42.525 45.055 43.56 45.055 44.91C45.055 46.17 44.605 47.25 43.705 48.06C42.805 48.915 41.59 49.32 40.105 49.32C38.575 49.32 37.315 48.87 36.325 47.88C35.335 46.935 34.84 45.72 34.795 44.19L28.81 45.36C28.99 47.97 30.07 50.175 32.14 51.975C34.165 53.775 36.82 54.675 40.105 54.675C43.48 54.675 46.18 53.73 48.25 51.84C50.275 49.95 51.31 47.655 51.31 45C51.31 42.435 50.455 40.32 48.79 38.7C47.125 37.08 45.145 36.18 42.85 36.09L50.41 29.79V24.795H29.755V30.15H42.535L34.885 36.72L37.63 41.04Z" fill="#160647"/>
</svg>
