<svg width="80" height="80" viewBox="0 0 80 80" fill="none" xmlns="http://www.w3.org/2000/svg">
<circle opacity="0.6" cx="40" cy="40" r="40" fill="#D2F5E9"/>
<path d="M35.785 35.09C35.605 34.55 35.56 34.01 35.56 33.47C35.56 32.03 35.92 30.86 36.73 29.96C37.54 29.06 38.665 28.61 40.195 28.61C41.59 28.61 42.67 29.015 43.435 29.78C44.2 30.59 44.605 31.535 44.605 32.615C44.605 34.595 43.435 36.305 41.14 37.655L36.325 40.535C33.805 42.065 32.05 43.82 31.015 45.845C29.98 47.915 29.44 50.3 29.44 53H51.04V47.645H37.045C37.405 46.745 38.215 45.845 39.565 44.99L45.19 41.57C48.97 39.275 50.86 36.26 50.86 32.525C50.86 29.915 49.87 27.665 47.98 25.865C46.045 24.065 43.48 23.12 40.33 23.12C37.045 23.12 34.435 24.11 32.545 26C30.61 27.89 29.665 30.185 29.665 32.885C29.665 33.56 29.71 34.235 29.89 34.91L35.785 35.09Z" fill="#160647"/>
</svg>
